HIERARCHY
ROOT hip
{
  OFFSET 0 90.174 2.4664
  CHANNELS 6 Xposition Yposition Zposition Zrotation Xrotation Yrotation
  JOINT abdomen
  {
    OFFSET 0 -1.186 -1.5018
    CHANNELS 6 Xposition Yposition Zposition Zrotation Xrotation Yrotation
    JOINT abdomen2
    {
      OFFSET 0 9.964 0.2134
      CHANNELS 6 Xposition Yposition Zposition Zrotation Xrotation Yrotation
      JOINT chest
      {
        OFFSET 0 13.134 -3.2573
        CHANNELS 6 Xposition Yposition Zposition Zrotation Xrotation Yrotation
        JOINT neck
        {
          OFFSET 0 20.686 -1.6905
          CHANNELS 6 Xposition Yposition Zposition Zrotation Xrotation Yrotation
          JOINT head
          {
            OFFSET 0 7.238 -0.1237
            CHANNELS 6 Xposition Yposition Zposition Zrotation Xrotation Yrotation
            End Site
            {
              OFFSET 0 0 0
            }
          }
        }
        JOINT lCollar
        {
          OFFSET 1.7069 20.075 5.0056
          CHANNELS 6 Xposition Yposition Zposition Zrotation Xrotation Yrotation
          JOINT lShldr
          {
            OFFSET 13.6458 -0.047 -4.849
            CHANNELS 6 Xposition Yposition Zposition Zrotation Xrotation Yrotation
            JOINT lForeArm
            {
              OFFSET 28.3255 -0.9759 2.2888
              CHANNELS 6 Xposition Yposition Zposition Zrotation Xrotation Yrotation
              JOINT lHand
              {
                OFFSET 22.1583 -0.53 10.8316
                CHANNELS 6 Xposition Yposition Zposition Zrotation Xrotation Yrotation
                JOINT lThumb1
                {
                  OFFSET 0.786 0.112 2.5817
                  CHANNELS 6 Xposition Yposition Zposition Zrotation Xrotation Yrotation
                  JOINT lThumb2
                  {
                    OFFSET 0.3601 -0.878 4.2331
                    CHANNELS 6 Xposition Yposition Zposition Zrotation Xrotation Yrotation
                    JOINT lThumb2_End
                    {
                      OFFSET 1.8127 -1.216 2.2227
                      CHANNELS 6 Xposition Yposition Zposition Zrotation Xrotation Yrotation
                      End Site
                      {
                        OFFSET 0.0181 -0.0122 0.0222
                      }
                    }
                  }
                }
                JOINT lCarpal1
                {
                  OFFSET 0.9571 1.114 1.7695
                  CHANNELS 6 Xposition Yposition Zposition Zrotation Xrotation Yrotation
                  JOINT lIndex1
                  {
                    OFFSET 4.1246 0.487 4.1451
                    CHANNELS 6 Xposition Yposition Zposition Zrotation Xrotation Yrotation
                    JOINT lIndex2
                    {
                      OFFSET 3.4052 -1.454 2.7682
                      CHANNELS 6 Xposition Yposition Zposition Zrotation Xrotation Yrotation
                      JOINT lIndex2_End
                      {
                        OFFSET 1.4531 -1.795 1.2713
                        CHANNELS 6 Xposition Yposition Zposition Zrotation Xrotation Yrotation
                        End Site
                        {
                          OFFSET 0.0145 -0.0179 0.0127
                        }
                      }
                    }
                  }
                  JOINT lMid1
                  {
                    OFFSET 5.6954 0.21 2.1184
                    CHANNELS 6 Xposition Yposition Zposition Zrotation Xrotation Yrotation
                    JOINT lMid2
                    {
                      OFFSET 3.9766 -1.54 2.3863
                      CHANNELS 6 Xposition Yposition Zposition Zrotation Xrotation Yrotation
                      JOINT lMid2_End
                      {
                        OFFSET 1.4042 -1.926 1.125
                        CHANNELS 6 Xposition Yposition Zposition Zrotation Xrotation Yrotation
                        End Site
                        {
                          OFFSET 0.014 -0.0193 0.0113
                        }
                      }
                    }
                  }
                }
                JOINT lCarpal2
                {
                  OFFSET 2.0956 0.66 -0.3894
                  CHANNELS 6 Xposition Yposition Zposition Zrotation Xrotation Yrotation
                  JOINT lRing1
                  {
                    OFFSET 5.0395 -0.09 2.4971
                    CHANNELS 6 Xposition Yposition Zposition Zrotation Xrotation Yrotation
                    JOINT lRing2
                    {
                      OFFSET 3.7921 -1.552 1.4806
                      CHANNELS 6 Xposition Yposition Zposition Zrotation Xrotation Yrotation
                      JOINT lRing2_End
                      {
                        OFFSET 1.4655 -1.808 0.9609
                        CHANNELS 6 Xposition Yposition Zposition Zrotation Xrotation Yrotation
                        End Site
                        {
                          OFFSET 0.0147 -0.0181 0.0096
                        }
                      }
                    }
                  }
                  JOINT lPinky1
                  {
                    OFFSET 4.9141 -1.269 0.3591
                    CHANNELS 6 Xposition Yposition Zposition Zrotation Xrotation Yrotation
                    JOINT lPinky2
                    {
                      OFFSET 3.1477 -1.685 0.8462
                      CHANNELS 6 Xposition Yposition Zposition Zrotation Xrotation Yrotation
                      JOINT lPinky2_End
                      {
                        OFFSET 0.8055 -1.585 0.7955
                        CHANNELS 6 Xposition Yposition Zposition Zrotation Xrotation Yrotation
                        End Site
                        {
                          OFFSET 0.0081 -0.0158 0.008
                        }
                      }
                    }
                  }
                }
              }
            }
          }
        }
        JOINT rCollar
        {
          OFFSET -1.7069 20.075 5.0056
          CHANNELS 6 Xposition Yposition Zposition Zrotation Xrotation Yrotation
          JOINT rShldr
          {
            OFFSET -13.6458 -0.047 -4.849
            CHANNELS 6 Xposition Yposition Zposition Zrotation Xrotation Yrotation
            JOINT rForeArm
            {
              OFFSET -28.3255 -0.9759 2.2888
              CHANNELS 6 Xposition Yposition Zposition Zrotation Xrotation Yrotation
              JOINT rHand
              {
                OFFSET -22.1583 -0.53 10.8316
                CHANNELS 6 Xposition Yposition Zposition Zrotation Xrotation Yrotation
                JOINT rThumb1
                {
                  OFFSET -0.786 0.112 2.5817
                  CHANNELS 6 Xposition Yposition Zposition Zrotation Xrotation Yrotation
                  JOINT rThumb2
                  {
                    OFFSET -0.3601 -0.878 4.2331
                    CHANNELS 6 Xposition Yposition Zposition Zrotation Xrotation Yrotation
                    JOINT rThumb2_End
                    {
                      OFFSET -1.8127 -1.216 2.2227
                      CHANNELS 6 Xposition Yposition Zposition Zrotation Xrotation Yrotation
                      End Site
                      {
                        OFFSET -0.0181 -0.0122 0.0222
                      }
                    }
                  }
                }
                JOINT rCarpal1
                {
                  OFFSET -0.9571 1.114 1.7695
                  CHANNELS 6 Xposition Yposition Zposition Zrotation Xrotation Yrotation
                  JOINT rIndex1
                  {
                    OFFSET -4.1246 0.487 4.1451
                    CHANNELS 6 Xposition Yposition Zposition Zrotation Xrotation Yrotation
                    JOINT rIndex2
                    {
                      OFFSET -3.4052 -1.454 2.7682
                      CHANNELS 6 Xposition Yposition Zposition Zrotation Xrotation Yrotation
                      JOINT rIndex2_End
                      {
                        OFFSET -1.4531 -1.795 1.2713
                        CHANNELS 6 Xposition Yposition Zposition Zrotation Xrotation Yrotation
                        End Site
                        {
                          OFFSET -0.0145 -0.018 0.0127
                        }
                      }
                    }
                  }
                  JOINT rMid1
                  {
                    OFFSET -5.6954 0.21 2.1184
                    CHANNELS 6 Xposition Yposition Zposition Zrotation Xrotation Yrotation
                    JOINT rMid2
                    {
                      OFFSET -3.9766 -1.54 2.3863
                      CHANNELS 6 Xposition Yposition Zposition Zrotation Xrotation Yrotation
                      JOINT rMid2_End
                      {
                        OFFSET -1.4042 -1.926 1.125
                        CHANNELS 6 Xposition Yposition Zposition Zrotation Xrotation Yrotation
                        End Site
                        {
                          OFFSET -0.014 -0.0193 0.0113
                        }
                      }
                    }
                  }
                }
                JOINT rCarpal2
                {
                  OFFSET -2.0956 0.66 -0.3894
                  CHANNELS 6 Xposition Yposition Zposition Zrotation Xrotation Yrotation
                  JOINT rRing1
                  {
                    OFFSET -5.0395 -0.09 2.4971
                    CHANNELS 6 Xposition Yposition Zposition Zrotation Xrotation Yrotation
                    JOINT rRing2
                    {
                      OFFSET -3.7921 -1.552 1.4806
                      CHANNELS 6 Xposition Yposition Zposition Zrotation Xrotation Yrotation
                      JOINT rRing2_End
                      {
                        OFFSET -1.4655 -1.808 0.9609
                        CHANNELS 6 Xposition Yposition Zposition Zrotation Xrotation Yrotation
                        End Site
                        {
                          OFFSET -0.0147 -0.0181 0.0096
                        }
                      }
                    }
                  }
                  JOINT rPinky1
                  {
                    OFFSET -4.9141 -1.269 0.3592
                    CHANNELS 6 Xposition Yposition Zposition Zrotation Xrotation Yrotation
                    JOINT rPinky2
                    {
                      OFFSET -3.1477 -1.685 0.8462
                      CHANNELS 6 Xposition Yposition Zposition Zrotation Xrotation Yrotation
                      JOINT rPinky2_End
                      {
                        OFFSET -0.8055 -1.585 0.7955
                        CHANNELS 6 Xposition Yposition Zposition Zrotation Xrotation Yrotation
                        End Site
                        {
                          OFFSET -0.0081 -0.0158 0.008
                        }
                      }
                    }
                  }
                }
              }
            }
          }
        }
      }
    }
  }
  JOINT lThigh
  {
    OFFSET 8.367 -8.2066 0.5982
    CHANNELS 6 Xposition Yposition Zposition Zrotation Xrotation Yrotation
    JOINT lShin
    {
      OFFSET 2.1923 -43.463 -0.4932
      CHANNELS 6 Xposition Yposition Zposition Zrotation Xrotation Yrotation
      JOINT lFoot
      {
        OFFSET 0.7333 -45.8593 -2.6451
        CHANNELS 6 Xposition Yposition Zposition Zrotation Xrotation Yrotation
        End Site
        {
          OFFSET 2.6618 -4.2699 12.3931
        }
      }
    }
  }
  JOINT rThigh
  {
    OFFSET -8.367 -8.2066 0.5982
    CHANNELS 6 Xposition Yposition Zposition Zrotation Xrotation Yrotation
    JOINT rShin
    {
      OFFSET -2.1923 -43.463 -0.4931
      CHANNELS 6 Xposition Yposition Zposition Zrotation Xrotation Yrotation
      JOINT rFoot
      {
        OFFSET -0.7333 -45.8593 -2.6451
        CHANNELS 6 Xposition Yposition Zposition Zrotation Xrotation Yrotation
        End Site
        {
          OFFSET -2.6618 -4.2699 12.3931
        }
      }
    }
  }
}
MOTION
Frames:	4
Frame Time:	0.0333333
0 90.174 2.4664 0 0 -0 0 -1.186 -1.5018 0 0 -0 0 9.964 0.2134 0 0 -0 0 13.134 -3.2573 0 0 -0 0 20.686 -1.6905 0 0 -0 0 7.238 -0.1237 0 0 -0 1.7069 20.075 5.0056 0 0 -0 13.6458 -0.047 -4.849 1.66051 0.0835086 5.75766 28.3255 -0.9759 2.2888 -0.0175111 0.895433 15.7816 22.1583 -0.53 10.8316 7.95139e-016 -1.98785e-016 -0 0.786 0.112 2.5817 5.46658e-016 -3.97569e-016 -0 0.3601 -0.878 4.2331 5.96354e-016 0 -0 1.8127 -1.216 2.2227 3.97569e-016 1.98785e-016 9.54166e-015 0.9571 1.114 1.7695 1.49089e-016 -3.97569e-016 -0 4.1246 0.487 4.1451 6.4605e-016 0 3.18055e-015 3.4052 -1.454 2.7682 5.96354e-016 0 3.18055e-015 1.4531 -1.795 1.2713 8.94531e-016 -1.98785e-016 6.36111e-015 5.6954 0.21 2.1184 6.4605e-016 0 3.18055e-015 3.9766 -1.54 2.3863 5.96354e-016 0 3.18055e-015 1.4042 -1.926 1.125 8.94531e-016 -1.98785e-016 6.36111e-015 2.0956 0.66 -0.3894 1.49089e-016 -3.97569e-016 -0 5.0395 -0.09 2.4971 6.4605e-016 0 3.18055e-015 3.7921 -1.552 1.4806 5.96354e-016 0 3.18055e-015 1.4655 -1.808 0.9609 8.94531e-016 -1.98785e-016 6.36111e-015 4.9141 -1.269 0.3591 6.4605e-016 0 3.18055e-015 3.1477 -1.685 0.8462 5.96354e-016 0 3.18055e-015 0.8055 -1.585 0.7955 8.94531e-016 -1.98785e-016 6.36111e-015 -1.7069 20.075 5.0056 0 0 -0 -13.6458 -0.047 -4.849 -1.4496 0.0636048 -5.0245 -28.3255 -0.9759 2.2888 -1.74811 1.20616 -16.8394 -22.1583 -0.53 10.8316 -1.19271e-015 1.98785e-016 -3.18055e-015 -0.786 0.112 2.5817 -3.97569e-016 1.98785e-016 -3.18055e-015 -0.3601 -0.878 4.2331 -2.98177e-016 1.98785e-016 -3.18055e-015 -1.8127 -1.216 2.2227 -2.98177e-016 3.97569e-016 -0 -0.9571 1.114 1.7695 4.96962e-016 0 -6.36111e-015 -4.1246 0.487 4.1451 -9.93923e-017 3.97569e-016 -0 -3.4052 -1.454 2.7682 -8.94531e-016 5.96354e-016 -0 -1.4531 -1.795 1.2713 -3.97569e-016 3.97569e-016 -0 -5.6954 0.21 2.1184 -9.93923e-017 3.97569e-016 -0 -3.9766 -1.54 2.3863 -8.94531e-016 5.96354e-016 -0 -1.4042 -1.926 1.125 -3.97569e-016 3.97569e-016 -0 -2.0956 0.66 -0.3894 4.96962e-016 0 -6.36111e-015 -5.0395 -0.09 2.4971 -9.93923e-017 3.97569e-016 -0 -3.7921 -1.552 1.4806 -8.94531e-016 5.96354e-016 -0 -1.4655 -1.808 0.9609 -3.97569e-016 3.97569e-016 -0 -4.9141 -1.269 0.3592 -9.93923e-017 3.97569e-016 -0 -3.1477 -1.685 0.8462 -8.94531e-016 5.96354e-016 -0 -0.8055 -1.585 0.7955 -3.97569e-016 3.97569e-016 -0 8.367 -8.2066 0.5982 -4.66115 -1.03232 0.120763 2.1923 -43.463 -0.4932 0.00990601 1.55097 0.177175 0.7333 -45.8593 -2.6451 4.65196 -0.54114 -0.255042 -8.367 -8.2066 0.5982 4.66115 -1.03222 -0.120763 -2.1923 -43.463 -0.4931 -0.00990459 1.5509 -0.177176 -0.7333 -45.8593 -2.6451 -4.65196 -0.541171 0.255041 
-0.630774 25.6064 -7.42424 -0 -66.6681 -0 0 -1.186 -1.5018 -0.0466683 6.34482 -0.0808737 1.11022e-016 9.964 0.2134 -0.0850506 12.6897 -0.157978 -1.11022e-016 13.134 -3.2573 -0.0850506 12.6897 -0.157978 -1.11022e-016 20.686 -1.6905 2.26179e-006 13.3324 -3.66476e-007 2.22045e-016 7.238 -0.1237 -1.72661e-009 6.711 -7.69819e-009 1.7069 20.075 5.0056 0.459893 0.322345 6.37558 13.6458 -0.047 -4.849 -55.5635 1.21155 28.1745 28.3255 -0.9759 2.2888 22.3699 10.9041 -42.4806 22.1583 -0.53 10.8316 1.87242 18.1019 -1.51441 0.786 0.112 2.5817 2.96876e-007 -1.12753e-007 8.37806e-007 0.3601 -0.878 4.2331 7.93556e-007 2.29227e-006 1.69255e-006 1.8127 -1.216 2.2227 -2.49348e-007 7.87508e-007 2.14225e-007 0.9571 1.114 1.7695 -5.96354e-015 7.95139e-016 6.36111e-015 4.1246 0.487 4.1451 2.96876e-007 -1.12753e-007 8.37806e-007 3.4052 -1.454 2.7682 7.93556e-007 2.29227e-006 1.69255e-006 1.4531 -1.795 1.2713 -2.49348e-007 7.87508e-007 2.14225e-007 5.6954 0.21 2.1184 2.96876e-007 -1.12753e-007 8.37806e-007 3.9766 -1.54 2.3863 7.93556e-007 2.29227e-006 1.69255e-006 1.4042 -1.926 1.125 -2.49348e-007 7.87508e-007 2.14225e-007 2.0956 0.66 -0.3894 -5.96354e-015 7.95139e-016 6.36111e-015 5.0395 -0.09 2.4971 2.96876e-007 -1.12753e-007 8.37806e-007 3.7921 -1.552 1.4806 7.93556e-007 2.29227e-006 1.69255e-006 1.4655 -1.808 0.9609 -2.49348e-007 7.87508e-007 2.14225e-007 4.9141 -1.269 0.3591 2.96876e-007 -1.12753e-007 8.37806e-007 3.1477 -1.685 0.8462 7.93556e-007 2.29227e-006 1.69255e-006 0.8055 -1.585 0.7955 -2.49348e-007 7.87508e-007 2.14225e-007 -1.7069 20.075 5.0056 -0.462479 0.322546 -6.37817 -13.6458 -0.047 -4.849 55.7379 1.11468 -27.4468 -28.3255 -0.9759 2.2888 -23.5543 10.0097 41.6329 -22.1583 -0.53 10.8316 -2.06799 18.0394 2.0522 -0.786 0.112 2.5817 4.79416e-007 1.58513e-006 -4.1114e-007 -0.3601 -0.878 4.2331 4.79416e-007 1.58513e-006 -4.1114e-007 -1.8127 -1.216 2.2227 2.39708e-007 7.92564e-007 -2.0557e-007 -0.9571 1.114 1.7695 1.98785e-015 0 -6.36111e-015 -4.1246 0.487 4.1451 4.79416e-007 1.58513e-006 -4.1114e-007 -3.4052 -1.454 2.7682 4.79416e-007 1.58513e-006 -4.1114e-007 -1.4531 -1.795 1.2713 2.39708e-007 7.92564e-007 -2.0557e-007 -5.6954 0.21 2.1184 4.79416e-007 1.58513e-006 -4.1114e-007 -3.9766 -1.54 2.3863 4.79416e-007 1.58513e-006 -4.1114e-007 -1.4042 -1.926 1.125 2.39708e-007 7.92564e-007 -2.0557e-007 -2.0956 0.66 -0.3894 1.98785e-015 0 -6.36111e-015 -5.0395 -0.09 2.4971 4.79416e-007 1.58513e-006 -4.1114e-007 -3.7921 -1.552 1.4806 4.79416e-007 1.58513e-006 -4.1114e-007 -1.4655 -1.808 0.9609 2.39708e-007 7.92564e-007 -2.0557e-007 -4.9141 -1.269 0.3592 4.79416e-007 1.58513e-006 -4.1114e-007 -3.1477 -1.685 0.8462 4.79416e-007 1.58513e-006 -4.1114e-007 -0.8055 -1.585 0.7955 2.39708e-007 7.92564e-007 -2.0557e-007 8.367 -8.2066 0.5982 9.73317 -1.81646 0.991997 2.1923 -43.463 -0.4932 -1.43516 8.72172 1.14931 0.7333 -45.8593 -2.6451 9.28226 10.0812 -0.0085552 -8.367 -8.2066 0.5982 -3.30445 -43.264 -10.1601 -2.1923 -43.463 -0.4931 163.977 85.5888 -168.692 -0.7333 -45.8593 -2.6451 -9.08032 17.7609 -1.37692 
-0.938491 -6.17906 -8.44099 -180 -83.3313 -180 0 -1.186 -1.5018 -0.0671156 9.17618 -0.115845 0 9.964 0.2134 -0.117459 18.3525 -0.22506 0 13.134 -3.2573 -0.117459 18.3525 -0.22506 0 20.686 -1.6905 5.4876e-006 19.332 -2.14561e-006 0 7.238 -0.1237 2.99001e-008 9.50626 -1.40259e-007 1.7069 20.075 5.0056 0.643515 0.464221 9.24476 13.6458 -0.047 -4.849 -81.5139 1.62558 38.2681 28.3255 -0.9759 2.2888 35.7928 0.802124 -65.4876 22.1583 -0.53 10.8316 3.13779 26.1632 -3.03537 0.786 0.112 2.5817 -1.59028e-015 7.95139e-016 -6.36111e-015 0.3601 -0.878 4.2331 -1.59028e-015 -1.59028e-015 -3.18055e-015 1.8127 -1.216 2.2227 -7.95139e-016 -7.95139e-016 -3.18055e-015 0.9571 1.114 1.7695 -1.59028e-015 3.97569e-016 -6.36111e-015 4.1246 0.487 4.1451 7.95139e-016 -3.18055e-015 9.54166e-015 3.4052 -1.454 2.7682 2.38542e-015 1.98785e-015 -0 1.4531 -1.795 1.2713 1.76556e-031 1.59028e-015 -6.36111e-015 5.6954 0.21 2.1184 7.95139e-016 -3.18055e-015 9.54166e-015 3.9766 -1.54 2.3863 2.38542e-015 1.98785e-015 -0 1.4042 -1.926 1.125 1.76556e-031 1.59028e-015 -6.36111e-015 2.0956 0.66 -0.3894 -1.59028e-015 3.97569e-016 -6.36111e-015 5.0395 -0.09 2.4971 7.95139e-016 -3.18055e-015 9.54166e-015 3.7921 -1.552 1.4806 2.38542e-015 1.98785e-015 -0 1.4655 -1.808 0.9609 1.76556e-031 1.59028e-015 -6.36111e-015 4.9141 -1.269 0.3591 7.95139e-016 -3.18055e-015 9.54166e-015 3.1477 -1.685 0.8462 2.38542e-015 1.98785e-015 -0 0.8055 -1.585 0.7955 1.76556e-031 1.59028e-015 -6.36111e-015 -1.7069 20.075 5.0056 -0.64724 0.464514 -9.2485 -13.6458 -0.047 -4.849 81.6628 1.49803 -37.5421 -28.3255 -0.9759 2.2888 -36.537 -0.273594 64.548 -22.1583 -0.53 10.8316 -3.48447 26.0462 3.85348 -0.786 0.112 2.5817 -8.82781e-032 1.59028e-015 3.18055e-015 -0.3601 -0.878 4.2331 1.59028e-015 0 -0 -1.8127 -1.216 2.2227 3.18055e-015 -5.56597e-015 -6.36111e-015 -0.9571 1.114 1.7695 -8.82781e-032 1.59028e-015 3.18055e-015 -4.1246 0.487 4.1451 -1.59028e-015 3.18055e-015 9.54166e-015 -3.4052 -1.454 2.7682 1.59028e-015 -4.77083e-015 -6.36111e-015 -1.4531 -1.795 1.2713 -1.59028e-015 7.95139e-016 -0 -5.6954 0.21 2.1184 -1.59028e-015 3.18055e-015 9.54166e-015 -3.9766 -1.54 2.3863 1.59028e-015 -4.77083e-015 -6.36111e-015 -1.4042 -1.926 1.125 -1.59028e-015 7.95139e-016 -0 -2.0956 0.66 -0.3894 -8.82781e-032 1.59028e-015 3.18055e-015 -5.0395 -0.09 2.4971 -1.59028e-015 3.18055e-015 9.54166e-015 -3.7921 -1.552 1.4806 1.59028e-015 -4.77083e-015 -6.36111e-015 -1.4655 -1.808 0.9609 -1.59028e-015 7.95139e-016 -0 -4.9141 -1.269 0.3592 -1.59028e-015 3.18055e-015 9.54166e-015 -3.1477 -1.685 0.8462 1.59028e-015 -4.77083e-015 -6.36111e-015 -0.8055 -1.585 0.7955 -1.59028e-015 7.95139e-016 -0 8.367 -8.2066 0.5982 16.4294 -3.45097 1.37354 2.1923 -43.463 -0.4932 -2.13561 15.0321 1.81698 0.7333 -45.8593 -2.6451 11.084 13.044 0.269812 -8.367 -8.2066 0.5982 -17.3386 -64.1829 -29.1718 -2.1923 -43.463 -0.4931 177.513 43.5874 173.14 -0.7333 -45.8593 -2.6451 -10.8339 28.1587 -4.18614 
-0.898543 0.876982 -8.45615 -180 -89.9981 -180 0 -1.186 -1.5018 -0.0617667 8.49446 -0.10659 0 9.964 0.2134 -0.10918 16.989 -0.20728 -1.11022e-016 13.134 -3.2573 -0.10918 16.989 -0.20728 2.22045e-016 20.686 -1.6905 3.98044e-006 17.9988 -1.67341e-006 0 7.238 -0.1237 1.00886e-007 8.38567 -1.55087e-007 1.7069 20.075 5.0056 0.603948 0.43297 8.60715 13.6458 -0.047 -4.849 -75.7377 1.54103 36.0247 28.3255 -0.9759 2.2888 32.9281 3.93657 -60.5894 22.1583 -0.53 10.8316 2.8192 24.3792 -2.64242 0.786 0.112 2.5817 7.95139e-016 3.97569e-015 9.54166e-015 0.3601 -0.878 4.2331 8.02274e-007 -1.44961e-006 -3.37772e-007 1.8127 -1.216 2.2227 3.97569e-015 1.78906e-015 -1.59028e-014 0.9571 1.114 1.7695 7.95139e-016 -1.19271e-015 6.36111e-015 4.1246 0.487 4.1451 -3.97569e-015 5.1684e-015 1.27222e-014 3.4052 -1.454 2.7682 8.02274e-007 -1.44961e-006 -3.37772e-007 1.4531 -1.795 1.2713 1.59028e-015 -1.59028e-015 -6.36111e-015 5.6954 0.21 2.1184 -3.97569e-015 5.1684e-015 1.27222e-014 3.9766 -1.54 2.3863 8.02274e-007 -1.44961e-006 -3.37772e-007 1.4042 -1.926 1.125 1.59028e-015 -1.59028e-015 -6.36111e-015 2.0956 0.66 -0.3894 7.95139e-016 -1.19271e-015 6.36111e-015 5.0395 -0.09 2.4971 -3.97569e-015 5.1684e-015 1.27222e-014 3.7921 -1.552 1.4806 8.02274e-007 -1.44961e-006 -3.37772e-007 1.4655 -1.808 0.9609 1.59028e-015 -1.59028e-015 -6.36111e-015 4.9141 -1.269 0.3591 -3.97569e-015 5.1684e-015 1.27222e-014 3.1477 -1.685 0.8462 8.02274e-007 -1.44961e-006 -3.37772e-007 0.8055 -1.585 0.7955 1.59028e-015 -1.59028e-015 -6.36111e-015 -1.7069 20.075 5.0056 -0.60742 0.433252 -8.61064 -13.6458 -0.047 -4.849 75.8927 1.42001 -35.2984 -28.3255 -0.9759 2.2888 -33.7661 2.86992 59.6864 -22.1583 -0.53 10.8316 -3.12827 24.2761 3.39521 -0.786 0.112 2.5817 1.55818e-006 2.92266e-006 -6.5287e-007 -0.3601 -0.878 4.2331 -7.95139e-016 -2.38542e-015 -3.18055e-015 -1.8127 -1.216 2.2227 4.48084e-006 1.36448e-006 -1.16937e-006 -0.9571 1.114 1.7695 -1.59028e-015 4.37326e-015 -0 -4.1246 0.487 4.1451 1.55818e-006 2.92266e-006 -6.5287e-007 -3.4052 -1.454 2.7682 -7.95139e-016 -7.95139e-016 -3.18055e-015 -1.4531 -1.795 1.2713 4.48084e-006 1.36448e-006 -1.16937e-006 -5.6954 0.21 2.1184 1.55818e-006 2.92266e-006 -6.5287e-007 -3.9766 -1.54 2.3863 -7.95139e-016 -7.95139e-016 -3.18055e-015 -1.4042 -1.926 1.125 4.48084e-006 1.36448e-006 -1.16937e-006 -2.0956 0.66 -0.3894 -1.59028e-015 4.37326e-015 -0 -5.0395 -0.09 2.4971 1.55818e-006 2.92266e-006 -6.5287e-007 -3.7921 -1.552 1.4806 -7.95139e-016 -7.95139e-016 -3.18055e-015 -1.4655 -1.808 0.9609 4.48084e-006 1.36448e-006 -1.16937e-006 -4.9141 -1.269 0.3592 1.55818e-006 2.92266e-006 -6.5287e-007 -3.1477 -1.685 0.8462 -7.95139e-016 -7.95139e-016 -3.18055e-015 -0.8055 -1.585 0.7955 4.48084e-006 1.36448e-006 -1.16937e-006 8.367 -8.2066 0.5982 14.9302 -2.92329 1.28907 2.1923 -43.463 -0.4932 -1.97148 13.2553 1.63427 0.7333 -45.8593 -2.6451 10.7025 12.5964 0.183045 -8.367 -8.2066 0.5982 -12.6181 -59.212 -22.3993 -2.1923 -43.463 -0.4931 176.981 52.912 175.272 -0.7333 -45.8593 -2.6451 -10.4425 25.3519 -3.17081 
